<svg xmlns="http://www.w3.org/2000/svg" viewBox="0 0 32 32"><title>47-Note Book</title><g id="_47-Note_Book" data-name="47-Note Book"><path d="M27,0H7A4,4,0,0,0,3,4V5H1A2,2,0,0,0,3,7v3H1a2,2,0,0,0,2,2v3H1a2,2,0,0,0,2,2v3H1a2,2,0,0,0,2,2v3H1a2,2,0,0,0,2,2v1a4,4,0,0,0,4,4H27a4,4,0,0,0,4-4V4A4,4,0,0,0,27,0ZM7,30a2,2,0,0,1-2-2V27H7Zm0-5H5V22H7Zm0-5H5V17H7Zm0-5H5V12H7Zm0-5H5V7H7ZM7,5H5V4A2,2,0,0,1,7,2ZM29,28a2,2,0,0,1-2,2H9V2h3V13a1,1,0,0,0,1.55.83L16,12.2l2.45,1.63A1,1,0,0,0,20,13V2h7a2,2,0,0,1,2,2Z"/><path d="M25,5H22V7h2V9H22v2h3a1,1,0,0,0,1-1V6A1,1,0,0,0,25,5Z"/></g></svg>